<svg width="244" height="193" viewBox="0 0 244 193" fill="none" xmlns="http://www.w3.org/2000/svg">
<g clip-path="url(#clip0_6146_85790)">
<path d="M237.396 187.044C237.396 188.674 236.745 190.174 235.659 191.261C234.573 192.326 233.095 193 231.445 193H39.8597C36.558 193 33.908 190.326 33.908 187.044C33.908 186.174 34.1035 185.327 34.451 184.566H12.9683C9.68836 184.566 7.0166 181.914 7.0166 178.61C7.0166 176.98 7.68997 175.48 8.75433 174.415C9.81869 173.35 11.3175 172.676 12.9683 172.676H204.553C207.855 172.676 210.505 175.328 210.505 178.61C210.505 179.501 210.309 180.349 209.984 181.088H231.445C234.746 181.088 237.396 183.761 237.396 187.044Z" fill="#F2F2F2"/>
<path d="M85.4751 58.7764H75.9827C72.6957 58.7764 70.031 61.4429 70.031 64.7322V175.133C70.031 178.422 72.6957 181.089 75.9827 181.089H85.4751C88.7621 181.089 91.4268 178.422 91.4268 175.133V64.7322C91.4268 61.4429 88.7621 58.7764 85.4751 58.7764Z" fill="white"/>
<path d="M85.475 184.349H75.9827C70.8998 184.349 66.7727 180.219 66.7727 175.133V64.732C66.7727 59.6456 70.8998 55.5156 75.9827 55.5156H85.475C90.5579 55.5156 94.685 59.6456 94.685 64.732V175.133C94.685 180.219 90.5579 184.349 85.475 184.349ZM75.9827 62.0366C74.5056 62.0366 73.2892 63.2539 73.2892 64.732V175.133C73.2892 176.611 74.5056 177.828 75.9827 177.828H85.475C86.9521 177.828 88.1685 176.611 88.1685 175.133V64.732C88.1685 63.2539 86.9521 62.0366 85.475 62.0366H75.9827Z" fill="#DBDBDB"/>
<path d="M168.017 58.7764H158.524C155.237 58.7764 152.573 61.4429 152.573 64.7322V175.133C152.573 178.422 155.237 181.089 158.524 181.089H168.017C171.304 181.089 173.969 178.422 173.969 175.133V64.7322C173.969 61.4429 171.304 58.7764 168.017 58.7764Z" fill="white"/>
<path d="M168.039 184.349H158.546C153.464 184.349 149.336 180.219 149.336 175.133V64.732C149.336 59.6456 153.464 55.5156 158.546 55.5156H168.039C173.122 55.5156 177.249 59.6456 177.249 64.732V175.133C177.249 180.219 173.122 184.349 168.039 184.349ZM158.546 62.0366C157.069 62.0366 155.853 63.2539 155.853 64.732V175.133C155.853 176.611 157.069 177.828 158.546 177.828H168.039C169.516 177.828 170.732 176.611 170.732 175.133V64.732C170.732 63.2539 169.516 62.0366 168.039 62.0366H158.546Z" fill="#DBDBDB"/>
<path d="M227.774 35.9961H16.2265C9.34051 35.9961 3.7583 41.5822 3.7583 48.4729V70.6444C3.7583 77.5351 9.34051 83.1212 16.2265 83.1212H227.774C234.66 83.1212 240.242 77.5351 240.242 70.6444V48.4729C240.242 41.5822 234.66 35.9961 227.774 35.9961Z" fill="white"/>
<path d="M227.774 39.2564C232.856 39.2564 236.983 43.3863 236.983 48.4727V70.6441C236.983 75.7305 232.856 79.8605 227.774 79.8605H16.2482C11.1653 79.8605 7.03821 75.7305 7.03821 70.6441V48.4727C7.03821 43.3863 11.1653 39.2564 16.2482 39.2564H227.774ZM227.774 32.7354H16.2482C7.55953 32.7354 0.5 39.7998 0.5 48.4727V70.6441C0.5 79.3171 7.55953 86.3815 16.2265 86.3815H227.774C236.44 86.3815 243.5 79.3171 243.5 70.6441V48.4727C243.5 39.7998 236.44 32.7354 227.774 32.7354Z" fill="#DBDBDB"/>
<path d="M14.8581 136.377C14.3802 136.377 13.8806 136.355 13.4027 136.29C13.1638 136.268 12.8597 136.224 12.5338 136.159C7.45098 135.094 3.7583 130.551 3.7583 125.334V114.553C3.7583 109.88 6.71244 105.706 11.1219 104.163C11.4478 104.032 11.9474 103.902 12.4252 103.772C12.5121 103.75 12.599 103.728 12.7076 103.706C13.0986 103.641 13.4244 103.598 13.7503 103.576C14.0109 103.554 14.3585 103.511 14.706 103.511H229.207C234.095 103.511 238.352 106.663 239.764 111.336C240.068 112.358 240.242 113.444 240.242 114.553V125.334C240.242 131.421 235.289 136.377 229.207 136.377H14.8581Z" fill="white"/>
<path d="M229.207 106.771C232.726 106.771 235.68 109.097 236.658 112.292C236.875 113.009 236.983 113.77 236.983 114.553V125.334C236.983 129.638 233.508 133.116 229.207 133.116H14.858C14.5105 133.116 14.1629 133.094 13.8154 133.051C13.6199 133.051 13.4244 133.007 13.2289 132.964C9.68825 132.225 7.01649 129.095 7.01649 125.334V114.553C7.01649 111.162 9.18866 108.293 12.208 107.227C12.5338 107.097 12.8813 107.01 13.2289 106.923C13.4895 106.88 13.7502 106.836 14.0109 106.814C14.2281 106.793 14.467 106.771 14.706 106.771H229.207ZM229.207 100.25H14.706C14.2498 100.25 13.8154 100.272 13.4027 100.315C12.9899 100.359 12.599 100.402 12.1862 100.489C12.0125 100.511 11.817 100.554 11.6432 100.598C11.2088 100.706 10.6006 100.859 9.92719 101.119C4.27957 103.163 0.5 108.553 0.5 114.553V125.334C0.5 132.073 5.30048 137.963 11.9039 139.354C12.2731 139.441 12.6858 139.485 13.1203 139.55C13.6416 139.615 14.2498 139.659 14.858 139.659H229.207C237.092 139.659 243.5 133.246 243.5 125.356V114.574C243.5 113.14 243.304 111.749 242.892 110.423C241.024 104.336 235.528 100.272 229.207 100.272V100.25Z" fill="#DBDBDB"/>
<g opacity="0.05">
<path d="M26.8919 106.771L17.1389 133.115H14.8581C10.5355 133.115 7.0166 130.181 7.0166 126.573V121.204L12.2298 107.14C13.0552 106.879 13.9458 106.771 14.8581 106.771H26.8919Z" fill="black"/>
</g>
<g opacity="0.05">
<path d="M63.1454 106.771L53.3924 133.115H38.8606L48.6136 106.771H63.1454Z" fill="black"/>
</g>
<g opacity="0.05">
<path d="M99.3988 106.771L89.6458 133.115H75.114L84.867 106.771H99.3988Z" fill="black"/>
</g>
<g opacity="0.05">
<path d="M135.652 106.771L125.899 133.115H111.389L121.142 106.771H135.652Z" fill="black"/>
</g>
<g opacity="0.05">
<path d="M171.906 106.771L162.153 133.115H147.643L157.396 106.771H171.906Z" fill="black"/>
</g>
<g opacity="0.05">
<path d="M208.159 106.771L198.406 133.115H183.896L193.649 106.771H208.159Z" fill="black"/>
</g>
<g opacity="0.05">
<path d="M236.658 112.292L228.947 133.115H214.437L224.19 106.771H229.207C232.726 106.771 235.68 109.096 236.658 112.292Z" fill="black"/>
</g>
<g opacity="0.05">
<path d="M47.9618 39.2568L32.9305 79.861H18.3987L33.4301 39.2568H47.9618Z" fill="black"/>
</g>
<g opacity="0.05">
<path d="M84.2153 39.2568L69.1839 79.861H54.6521L69.6835 39.2568H84.2153Z" fill="black"/>
</g>
<g opacity="0.05">
<path d="M120.468 39.2568L105.437 79.861H90.9053L105.937 39.2568H120.468Z" fill="black"/>
</g>
<g opacity="0.05">
<path d="M156.722 39.2568L141.691 79.861H127.181L142.212 39.2568H156.722Z" fill="black"/>
</g>
<g opacity="0.05">
<path d="M192.976 39.2568L177.944 79.861H163.434L178.465 39.2568H192.976Z" fill="black"/>
</g>
<g opacity="0.05">
<path d="M229.185 39.409L214.198 79.861H199.688L214.719 39.2568H227.404C228.013 39.2568 228.621 39.3003 229.185 39.409Z" fill="black"/>
</g>
</g>
<defs>
<clipPath id="clip0_6146_85790">
<rect width="243" height="193" fill="white" transform="translate(0.5)"/>
</clipPath>
</defs>
</svg>
